<svg width="99" height="99" viewBox="0 0 99 99" fill="none" xmlns="http://www.w3.org/2000/svg">
<path d="M9.57845 49.4346C9.78846 71.2006 27.6685 88.739 49.4346 88.529C71.2006 88.319 88.739 70.4389 88.529 48.6728C88.319 26.9068 70.4389 9.36843 48.6729 9.57844C26.9068 9.78844 9.36844 27.6685 9.57845 49.4346ZM15.6516 49.376C15.4732 30.8924 30.2479 15.8299 48.7314 15.6516C67.215 15.4732 82.2775 30.2479 82.4559 48.7314C82.6342 67.215 67.8595 82.2775 49.376 82.4559C30.8925 82.6342 15.8299 67.8595 15.6516 49.376ZM27.8271 52.2954L59.0429 51.9942L47.0139 64.2576L51.4277 68.4848L68.527 51.0493L70.6922 48.8419L68.4848 46.6767L51.0493 29.5774L46.7209 33.892L58.9843 45.9211L27.7685 46.2222L27.8271 52.2954Z" fill="#FEFCFC"/>
</svg>
